<svg xmlns="http://www.w3.org/2000/svg" xml:space="preserve" viewBox="171.333 264.167 254.417 73.378"><g fill="#FFF"><path d="M425.75 305.387h-7.144v21.219l-18.788-21.219h-7.455v31.666h7.145V314.78l19.758 22.272h6.484v-31.665zm-57.258 5.908c6.576 0 11.288 3.925 11.288 9.925s-4.72 9.925-11.288 9.925c-6.613 0-11.333-3.925-11.333-9.925 0-5.992 4.72-9.925 11.333-9.925m0-6.394c-10.939 0-18.833 6.879-18.833 16.318s7.894 16.318 18.833 16.318c10.895 0 18.788-6.879 18.788-16.318s-7.893-16.318-18.788-16.318m-57.431 25.986c3.174 4.061 10.985 6.658 18.258 6.658 9.311 0 16.272-3.484 16.272-10.583 0-6.924-6.795-8.204-15.083-9.128-7.811-.879-10.016-1.326-10.016-3.395 0-1.895 2.516-3.395 7.5-3.395 5.25 0 9.834 1.721 12.349 4.629l4.629-4.894c-3-3.485-9.349-5.864-16.5-5.864-9.174 0-15.22 4.016-15.22 10.318 0 6.35 6.083 7.895 13.629 8.735 8.47.925 11.068 1.144 11.068 3.796 0 2.295-3.439 3.613-8.334 3.613-4.583 0-10.234-1.455-13.939-5.826l-4.613 5.336zm-4.099-25.5h-7.363v31.666h7.363v-31.666zm-40.212 25.454v-19.235h9.129c6.924 0 10.939 3.796 10.939 9.614 0 5.825-4.015 9.614-10.894 9.614h-9.174v.007zm-7.235 6.22h16.409c11.25 0 18.303-6.174 18.303-15.833s-7.061-15.833-18.303-15.833h-16.409v31.666zm-64.318 0 10.765-24.395v24.395h7.144v-31.666h-10.939l-9.833 22.674-9.879-22.674h-11.114v31.666h7.189v-24.395l10.72 24.395h5.947zm40.939-24.448 5.682 11.546h-11.417l5.735-11.546zm-4.098-7.226L216.22 337.03h7.841l3.349-6.788h17.364l3.348 6.788h7.978l-15.735-31.644h-8.327zM306.992 264.651h-7.363v31.667h7.363v-8.735l5.864-5.03 12.394 13.765h9.53l-16.583-18.349 15.522-13.318h-10.144l-16.584 14.47v-14.47h.001zm-48.613 15.834c0 9.439 7.939 16.318 18.788 16.318 8.515 0 14.599-3.841 17.023-10.099l-6.53-3.129c-1.591 4.189-5.159 6.833-10.5 6.833-6.394 0-11.295-3.924-11.295-9.924s4.894-9.924 11.295-9.924c5.333 0 8.909 2.644 10.5 6.833l6.53-3.129c-2.424-6.265-8.515-10.099-17.023-10.099-10.849.002-18.788 6.88-18.788 16.32m-5.068-15.834h-7.364v31.667h7.364v-31.667zm-38.629 14.425v-8.205h12.394c3.485 0 5.47 1.5 5.47 4.099 0 2.561-1.985 4.106-5.47 4.106h-12.394zm0 6h10.235l7.189 11.25h8.424l-7.894-12c4.455-1.409 7.144-4.72 7.144-9.485 0-6.613-4.939-10.189-12.303-10.189h-20.159v31.667h7.363v-11.243h.001zm-36.114 11.25v-12h20.598v-6.174h-20.598v-7.189h23.113v-6.311h-30.348v31.667h7.235v.007z"/></g></svg>