<svg xmlns="http://www.w3.org/2000/svg" xml:space="preserve" viewBox="18.471 284.536 562.801 30.928"><path fill="#FFF" d="M23.583 314.734a473.84 473.84 0 0 1 15.636 0v-.473c-4.252-.773-4.768-1.332-4.768-3.867v-23.195h.73c4.253 0 6.701 2.105 8.462 7.303h.473c0-3.05.086-6.143.258-9.193H18.471c.172 3.05.258 6.143.258 9.193h.473c1.804-5.198 4.209-7.303 8.376-7.303h.773v23.238c0 2.535-.559 3.051-4.768 3.867v.43zm25.858 0c4.639-.172 9.192-.172 13.789 0v-.473c-3.351-.773-3.823-1.332-3.823-3.867v-10.223h14.691v10.266c0 2.535-.516 3.051-3.823 3.867v.473c4.596-.172 9.149-.172 13.746 0v-.473c-3.308-.773-3.909-1.332-3.909-3.867v-20.875c0-2.535.601-3.05 3.909-3.866v-.472c-4.596.171-9.149.171-13.746 0v.472c3.308.773 3.823 1.332 3.823 3.866v8.677H59.407v-8.677c0-2.535.473-3.05 3.823-3.866v-.472c-4.597.171-9.15.171-13.789 0v.472c3.351.773 3.909 1.332 3.909 3.866v20.833c0 2.535-.559 3.051-3.909 3.867v.472zm62.801-8.892h-.473c-1.847 5.455-4.081 6.959-11.039 6.959h-1.074v-12.672h1.675c3.437 0 5.112 1.117 6.701 4.338h.473a63.447 63.447 0 0 1 0-10.695h-.473c-1.632 3.222-3.136 4.338-6.701 4.338h-1.675v-10.911h1.117c6.787 0 8.978 1.375 10.567 5.67h.472c0-2.535.086-5.069.258-7.604-7.474.172-14.948.172-22.422 0v.473c3.35.773 3.909 1.332 3.909 3.866v20.833c0 2.535-.559 3.051-3.909 3.867v.473a502.283 502.283 0 0 1 22.766 0c-.086-2.965-.215-5.971-.172-8.935zm38.703-20.576c-7.388.172-14.69.172-22.079 0v.473c3.35.773 4.038 1.332 4.038 3.866v20.833c0 2.535-.688 3.051-4.038 3.867v.473c4.939-.172 9.879-.172 14.819 0v-.473c-4.081-.773-4.725-1.332-4.725-3.867v-9.879h1.589c3.437 0 5.112 1.117 6.701 4.338h.472a62.64 62.64 0 0 1 0-10.609h-.472c-1.632 3.179-3.136 4.338-6.701 4.338h-1.589V287.2h1.117c6.1 0 8.248 1.246 10.138 5.67h.473c-.086-2.535.042-5.069.257-7.604zm27.148 22.08-3.608-5.928c3.737-1.461 5.713-4.554 5.713-7.861 0-4.639-4.038-8.634-12.414-8.291-4.339.172-7.518.172-11.469 0v.473c3.394.773 3.909 1.332 3.909 3.866v20.833c0 2.535-.515 3.051-3.909 3.867v.473c4.897-.172 9.794-.172 14.691 0v-.473c-4.21-.773-4.725-1.332-4.725-3.867v-8.461c.73.258 1.546.429 2.362.472l5.456 9.622c1.503 2.664 3.307 3.394 5.326 3.394 1.503 0 3.308-.43 5.241-.729v-.473c-1.805-.345-4.039-2.88-6.573-6.917zm-11.77-7.26v-12.801c.214-.043.73-.086 1.16-.086 3.909 0 6.271 2.191 6.271 6.787 0 3.522-2.062 6.486-5.456 6.486a5.36 5.36 0 0 1-1.975-.386zm31.357 10.352v-20.875c0-2.535.473-3.05 3.823-3.866v-.472c-4.596.171-9.149.171-13.789 0v.472c3.351.773 3.909 1.332 3.909 3.866v20.833c0 2.535-.558 3.051-3.909 3.867v.473c4.639-.172 9.192-.172 13.789 0v-.473c-3.393-.775-3.823-1.333-3.823-3.825zm25.172 5.026c3.308 0 6.83-.602 9.536-1.632a85.504 85.504 0 0 1-.387-8.119h-.472c-2.234 6.014-4.854 7.775-8.248 7.775-5.627 0-9.364-5.756-9.364-14.347 0-7.432 3.694-12.629 9.149-12.629 5.37 0 7.388 5.197 8.376 7.517h.473c0-2.749.128-5.499.3-8.205-2.835-.602-5.67-1.289-8.505-1.289-9.579 0-16.667 6.701-16.667 15.679.044 9.15 6.445 15.25 15.809 15.25zm16.151-.73a186.61 186.61 0 0 1 13.875 0v-.473c-3.437-.773-3.909-1.332-3.909-3.867v-20.833c0-2.535.472-3.05 3.909-3.866v-.472c-4.639.171-9.235.171-13.875 0v.472c3.351.773 3.909 1.332 3.909 3.866v20.833c0 2.535-.558 3.051-3.909 3.867v.473zm24.056.687c1.675 0 3.694-.215 6.014-.687v-.473c-2.449-.516-4.725-3.566-6.916-6.959l-6.658-10.138 4.296-5.284c2.878-3.565 4.51-4.897 7.259-6.186v-.472c-3.394.171-6.873.171-10.266 0v.472c1.503.559 2.362 1.117 2.362 2.062 0 .73-.559 1.761-1.632 3.222l-6.873 8.677 7.861 13.188c1.245 2.062 2.705 2.578 4.553 2.578zm33.504.043c3.308 0 6.83-.602 9.536-1.632a85.504 85.504 0 0 1-.387-8.119h-.473c-2.233 6.014-4.854 7.775-8.247 7.775-5.627 0-9.364-5.756-9.364-14.347 0-7.432 3.694-12.629 9.149-12.629 5.37 0 7.388 5.197 8.376 7.517h.473c0-2.749.129-5.499.301-8.205-2.835-.602-5.67-1.289-8.505-1.289-9.579 0-16.667 6.701-16.667 15.679.044 9.15 6.401 15.25 15.808 15.25zm31.444-30.928c-8.935 0-15.55 6.701-15.55 15.722s6.143 15.206 14.991 15.206c9.063 0 15.765-6.443 15.765-15.765 0-9.063-6.1-15.163-15.206-15.163zm.258 28.952c-5.541 0-8.892-5.756-8.892-15.121 0-7.345 3.007-11.855 8.118-11.855 5.584 0 8.892 5.713 8.892 15.078-.043 7.388-3.05 11.898-8.118 11.898zm20.79 1.246a447.065 447.065 0 0 1 21.478 0c-.172-3.309-.257-6.701-.172-10.01h-.472c-1.805 6.314-3.952 8.076-10.095 8.076h-.773v-23.239c0-2.535.473-3.05 4.769-3.866v-.472c-4.897.171-9.837.171-14.734 0v.472c3.351.773 3.909 1.332 3.909 3.866v20.833c0 2.535-.559 3.051-3.909 3.867v.473h-.001zm26.375 0a447.065 447.065 0 0 1 21.478 0c-.172-3.309-.258-6.701-.172-10.01h-.473c-1.804 6.314-3.952 8.076-10.095 8.076h-.772v-23.239c0-2.535.472-3.05 4.768-3.866v-.472c-4.896.171-9.837.171-14.733 0v.472c3.351.773 3.909 1.332 3.909 3.866v20.833c0 2.535-.559 3.051-3.909 3.867v.473h-.001zm49.011-8.892h-.473c-1.847 5.455-4.08 6.959-11.039 6.959h-1.117v-12.672h1.676c3.437 0 5.111 1.117 6.701 4.338h.472a63.447 63.447 0 0 1 0-10.695h-.472c-1.633 3.222-3.136 4.338-6.701 4.338h-1.676v-10.911h1.117c6.787 0 8.978 1.375 10.566 5.67h.473c0-2.535.086-5.069.258-7.604-7.474.172-14.948.172-22.423 0v.473c3.351.773 3.909 1.332 3.909 3.866v20.833c0 2.535-.559 3.051-3.909 3.867v.473a502.327 502.327 0 0 1 22.767 0c-.086-2.965-.172-5.971-.129-8.935zm22.638 9.622c3.308 0 6.83-.602 9.536-1.632a85.504 85.504 0 0 1-.387-8.119h-.473c-2.233 6.014-4.854 7.775-8.247 7.775-5.627 0-9.364-5.756-9.364-14.347 0-7.432 3.694-12.629 9.149-12.629 5.369 0 7.388 5.197 8.376 7.517h.473c0-2.749.129-5.499.301-8.205-2.835-.602-5.67-1.289-8.505-1.289-9.579 0-16.667 6.701-16.667 15.679.043 9.15 6.401 15.25 15.808 15.25zm19.975-.73a473.84 473.84 0 0 1 15.636 0v-.473c-4.253-.773-4.769-1.332-4.769-3.867v-23.195h.73c4.252 0 6.701 2.105 8.462 7.303h.473c0-3.05.086-6.143.258-9.193h-25.945c.172 3.05.258 6.143.258 9.193h.473c1.804-5.198 4.21-7.303 8.376-7.303h.773v23.238c0 2.535-.559 3.051-4.769 3.867v.43h.044zm35.953-4.296v-20.875c0-2.535.473-3.05 3.78-3.866v-.472c-4.597.171-9.149.171-13.789 0v.472c3.351.773 3.909 1.332 3.909 3.866v20.833c0 2.535-.559 3.051-3.909 3.867v.473c4.64-.172 9.192-.172 13.789 0v-.473c-3.308-.775-3.78-1.333-3.78-3.825zm25.086-25.902c-8.935 0-15.55 6.701-15.55 15.722s6.143 15.206 14.991 15.206c9.063 0 15.765-6.443 15.765-15.765 0-9.063-6.1-15.163-15.206-15.163zm.258 28.952c-5.541 0-8.892-5.756-8.892-15.121 0-7.345 3.007-11.855 8.118-11.855 5.584 0 8.892 5.713 8.892 15.078-.043 7.388-3.05 11.898-8.118 11.898zm46.821 1.589h2.104l.043-25.215c0-2.706.688-3.436 3.952-4.167v-.472c-3.737.171-7.604.171-11.426 0v.472c4.338.73 5.154 1.417 5.154 4.124l-.086 6.787.129 8.161h-.344l-16.753-19.501c-3.05.172-6.143.172-9.192 0v.473c3.651.773 4.339 1.503 4.339 4.167v20.232c0 2.663-.645 3.351-4.382 4.124v.473c3.995-.172 7.947-.172 11.856 0v-.473c-4.382-.773-5.112-1.461-5.112-4.167v-8.204l-.129-9.451h.387l19.46 22.637z"/></svg>